<?xml version="1.0" standalone="no"?><!DOCTYPE svg PUBLIC "-//W3C//DTD SVG 1.1//EN" "http://www.w3.org/Graphics/SVG/1.1/DTD/svg11.dtd"><svg class="icon" width="200px" height="200.00px" viewBox="0 0 1024 1024" version="1.1" xmlns="http://www.w3.org/2000/svg"><path d="M890.24 282.88a32 32 0 0 0-43.52-11.52l-192 108.8-131.84-78.72-167.04 96v192l166.4 96.64 167.04-96V435.2l192-108.8a32 32 0 0 0 8.96-43.52zM624.64 553.6l-102.4 58.88-102.4-59.52V434.56l103.04-58.88 102.4 59.52z" fill="#FFEBC7" /><path d="M521.6 956.16L121.6 724.48V262.4L522.88 32l173.44 100.48a32 32 0 0 1-32 55.68L522.88 105.6l-336.64 192v388.48l336 192 336.64-192V525.44a32 32 0 0 1 32-32 32 32 0 0 1 32 32v200.32z" fill="#6A81AE" /></svg>