<?xml version="1.0" standalone="no"?><!DOCTYPE svg PUBLIC "-//W3C//DTD SVG 1.1//EN" "http://www.w3.org/Graphics/SVG/1.1/DTD/svg11.dtd"><svg class="icon" width="200px" height="200.00px" viewBox="0 0 1024 1024" version="1.1" xmlns="http://www.w3.org/2000/svg"><path d="M517.76 549.12L314.88 432V197.12l202.88-117.12 203.52 117.12v234.88zM378.88 394.88l138.88 80.64 139.52-80.64V234.24L517.76 153.6 378.88 234.24zM273.92 960L70.4 845.44V610.56l203.52-117.12 203.52 117.12v234.88zM134.4 808.32l139.52 80.64 139.52-80.64v-160.64L273.92 567.04 134.4 647.68z" fill="#6A81AE" /><path d="M750.08 960l-203.52-114.56V610.56l203.52-117.12 203.52 117.12v234.88z m-139.52-151.68l139.52 80.64 139.52-80.64v-160.64l-139.52-80.64-139.52 80.64z" fill="#7EDA2C" /></svg>