<?xml version="1.0" standalone="no"?><!DOCTYPE svg PUBLIC "-//W3C//DTD SVG 1.1//EN" "http://www.w3.org/Graphics/SVG/1.1/DTD/svg11.dtd"><svg class="icon" width="200px" height="200.00px" viewBox="0 0 1024 1024" version="1.1" xmlns="http://www.w3.org/2000/svg"><path d="M832 643.2a146.56 146.56 0 0 0 78.08-120.96A145.92 145.92 0 0 0 832 401.92l-35.2 53.12c18.56 12.16 49.28 37.76 49.28 67.84s-26.88 52.48-49.28 67.84A547.2 547.2 0 0 1 512 657.92a547.2 547.2 0 0 1-287.36-67.84c-22.4-15.36-49.28-39.04-49.28-67.84s30.72-55.04 49.28-67.84L192 401.92a145.92 145.92 0 0 0-80.64 120.96A146.56 146.56 0 0 0 192 643.2a611.2 611.2 0 0 0 320 78.72 611.2 611.2 0 0 0 320-78.72" fill="#DDCC3A" /><path d="M867.84 616.96a233.6 233.6 0 0 1-32.64 26.88l-19.84 11.52a80 80 0 0 1 33.92 55.68c0 64-138.24 135.68-336.64 135.68s-336.64-71.68-336.64-135.68a80 80 0 0 1 33.92-55.68L192 643.2a233.6 233.6 0 0 1-32.64-26.88 128 128 0 0 0-44.8 94.08c0 113.92 172.16 199.68 400.64 199.68s400.64-85.76 400.64-199.68a128 128 0 0 0-48-93.44zM192 455.04a611.84 611.84 0 0 0 320 78.72 611.84 611.84 0 0 0 320-78.72m0 0a146.56 146.56 0 0 0 78.08-120.96C912.64 220.16 740.48 134.4 512 134.4S111.36 220.16 111.36 334.08A146.56 146.56 0 0 0 192 455.04m609.92-53.12A547.84 547.84 0 0 1 512 469.76a547.84 547.84 0 0 1-287.36-67.84c-18.56-12.16-49.28-37.76-49.28-67.84 0-64 138.24-135.68 336.64-135.68s336.64 71.68 336.64 135.68c0 30.08-30.72 55.04-49.28 67.84z" fill="#6A81AE" /></svg>