<?xml version="1.0" standalone="no"?><!DOCTYPE svg PUBLIC "-//W3C//DTD SVG 1.1//EN" "http://www.w3.org/Graphics/SVG/1.1/DTD/svg11.dtd"><svg class="icon" width="200px" height="200.00px" viewBox="0 0 1024 1024" version="1.1" xmlns="http://www.w3.org/2000/svg"><path d="M532.48 988.8l-412.8-238.72V273.92L532.48 35.2l412.8 238.08v476.8z m-348.8-275.2l348.8 201.6 348.8-201.6v-403.2L532.48 109.44 183.68 310.4z" fill="#6A81AE" /><path d="M725.12 492.16H604.16a44.8 44.8 0 0 1-44.8-44.8v-121.6a44.8 44.8 0 0 1 44.8-44.8h120.96a44.8 44.8 0 0 1 44.8 44.8V448a44.8 44.8 0 0 1-44.8 44.16z m-101.76-64H704v-83.2H623.36z" fill="#7EDA2C" /><path d="M460.8 743.04H339.2a44.8 44.8 0 0 1-44.8-44.8V576a44.8 44.8 0 0 1 44.8-44.8h121.6a44.8 44.8 0 0 1 44.8 44.8v121.6a44.8 44.8 0 0 1-44.8 45.44z m-101.76-64H441.6v-83.2H358.4zM725.12 743.04H604.16a44.8 44.8 0 0 1-44.8-44.8V576a44.8 44.8 0 0 1 44.8-44.8h120.96A44.8 44.8 0 0 1 768 576v121.6a44.8 44.8 0 0 1-42.88 45.44z m-101.76-64H704v-83.2H623.36z" fill="#6A81AE" /></svg>