<?xml version="1.0" standalone="no"?><!DOCTYPE svg PUBLIC "-//W3C//DTD SVG 1.1//EN" "http://www.w3.org/Graphics/SVG/1.1/DTD/svg11.dtd"><svg class="icon" width="200px" height="200.00px" viewBox="0 0 1024 1024" version="1.1" xmlns="http://www.w3.org/2000/svg"><path d="M92.16 147.2v710.4H896V147.2zM832 793.6H156.16V400H832zM156.16 327.68V211.2H832v116.48z" fill="#6A81AE" /><path d="M245.76 273.92m-24.96 0a24.96 24.96 0 1 0 49.92 0 24.96 24.96 0 1 0-49.92 0Z" fill="#FFEBC7" /><path d="M655.36 576h-43.52a110.08 110.08 0 0 0-12.8-30.08l28.8-32.64a7.68 7.68 0 0 0 0-10.24l-23.04-23.04a7.68 7.68 0 0 0-5.12 0 7.68 7.68 0 0 0-5.12 0l-32.64 28.8a110.08 110.08 0 0 0-30.08-12.8v-43.52a7.68 7.68 0 0 0-7.68-7.04h-35.84a7.68 7.68 0 0 0-7.68 2.56v43.52a110.08 110.08 0 0 0-30.08 12.8l-32.64-28.8a7.68 7.68 0 0 0-5.12 0 7.68 7.68 0 0 0-5.12 0L384 497.92a7.68 7.68 0 0 0 0 10.24l28.8 32.64a110.08 110.08 0 0 0-12.8 30.08L353.92 576a7.68 7.68 0 0 0-7.04 7.68v30.72a7.68 7.68 0 0 0 7.04 7.68h43.52a110.08 110.08 0 0 0 12.8 30.08l-26.24 35.84a7.68 7.68 0 0 0 0 10.24l23.04 23.04a7.68 7.68 0 0 0 5.12 0 7.68 7.68 0 0 0 5.12 0l30.72-28.16a110.08 110.08 0 0 0 30.08 12.8v43.52a7.68 7.68 0 0 0 7.68 7.04h32.64a7.68 7.68 0 0 0 7.68-7.04v-43.52a110.08 110.08 0 0 0 30.08-12.8l32.64 28.8a7.68 7.68 0 0 0 5.12 0 7.68 7.68 0 0 0 5.12 0l23.04-23.04a7.68 7.68 0 0 0 0-10.24l-28.8-32.64a110.08 110.08 0 0 0 12.8-30.08h43.52a7.68 7.68 0 0 0 7.04-7.68v-36.48a7.68 7.68 0 0 0-1.28-5.76z m-151.04 80.64a58.24 58.24 0 1 1 58.24-58.24 58.24 58.24 0 0 1-58.24 58.24z" fill="#FFEBC7" /></svg>