<?xml version="1.0" standalone="no"?><!DOCTYPE svg PUBLIC "-//W3C//DTD SVG 1.1//EN" "http://www.w3.org/Graphics/SVG/1.1/DTD/svg11.dtd"><svg class="icon" width="200px" height="200.00px" viewBox="0 0 1024 1024" version="1.1" xmlns="http://www.w3.org/2000/svg"><path d="M704 526.08H545.92V357.76a32 32 0 0 0-64 0v200.32a32 32 0 0 0 32 32h192a32 32 0 1 0 0-64z" fill="#DDCC3A" /><path d="M512 192a366.08 366.08 0 1 0 366.08 366.08A366.08 366.08 0 0 0 512 192z m0 668.16a302.08 302.08 0 1 1 302.08-302.08A302.08 302.08 0 0 1 512 860.16zM791.68 242.56a32 32 0 0 0 35.84-50.56l-90.24-64a32 32 0 1 0-35.2 53.12zM218.88 247.68a32 32 0 0 0 17.92-5.12l90.24-60.16A32 32 0 0 0 291.2 128L200.96 192a32 32 0 0 0 17.92 58.88z" fill="#6A81AE" /></svg>