<?xml version="1.0" standalone="no"?><!DOCTYPE svg PUBLIC "-//W3C//DTD SVG 1.1//EN" "http://www.w3.org/Graphics/SVG/1.1/DTD/svg11.dtd"><svg class="icon" width="200px" height="200.00px" viewBox="0 0 1024 1024" version="1.1" xmlns="http://www.w3.org/2000/svg"><path d="M945.92 768h-43.52a110.08 110.08 0 0 0-12.8-30.08l28.8-32.64a7.68 7.68 0 0 0 0-10.24l-22.4-24.32a7.68 7.68 0 0 0-5.12 0 7.68 7.68 0 0 0-5.12 0l-32.64 28.8a110.08 110.08 0 0 0-30.08-12.8v-42.88a7.68 7.68 0 0 0-7.68-7.04h-32.64a7.68 7.68 0 0 0-7.68 7.04v43.52a109.44 109.44 0 0 0-30.08 12.8l-40.96-29.44a7.68 7.68 0 0 0-5.12 0 7.68 7.68 0 0 0-5.12 0l-23.04 23.04a7.68 7.68 0 0 0 0 10.24l28.8 32.64a110.08 110.08 0 0 0-12.8 30.08h-43.52a7.68 7.68 0 0 0-7.04 7.68v32.64a8.96 8.96 0 0 0 7.04 7.68h43.52a109.44 109.44 0 0 0 11.52 28.16l-28.8 32.64a7.68 7.68 0 0 0 0 10.24l23.04 23.04a7.68 7.68 0 0 0 5.12 0 7.68 7.68 0 0 0 5.12 0l32.64-28.8a109.44 109.44 0 0 0 30.08 12.8v43.52a7.68 7.68 0 0 0 7.68 7.04h32.64a7.68 7.68 0 0 0 7.68-7.04v-43.52a110.08 110.08 0 0 0 30.08-12.8l32.64 28.8a7.68 7.68 0 0 0 5.12 0 7.68 7.68 0 0 0 5.12 0l23.04-23.04a7.68 7.68 0 0 0 0-10.24l-28.8-32.64a110.08 110.08 0 0 0 12.8-30.08h43.52a7.68 7.68 0 0 0 7.04-7.68v-32.64a7.68 7.68 0 0 0 1.92-4.48z m-151.04 81.92a57.6 57.6 0 0 1-55.04-42.88 56.32 56.32 0 0 1 0-15.36 57.6 57.6 0 0 1 52.48-56.96h5.76a58.24 58.24 0 1 1 0 116.48z" fill="#DDCC3A" /><path d="M695.04 548.48H512V367.36a32 32 0 1 0-64 0v213.12a32 32 0 0 0 32 32h213.76a32 32 0 0 0 0-64zM398.08 209.92a368 368 0 0 1 166.4 0h7.04a32 32 0 0 0 7.04-64 435.84 435.84 0 0 0-192 0 32 32 0 0 0 14.08 64z" fill="#6A81AE" /><path d="M481.28 234.88a345.6 345.6 0 1 0 0 691.2 341.76 341.76 0 0 0 158.72-38.4 39.04 39.04 0 0 1 8.96-24.32l10.88-12.16h-16a39.04 39.04 0 0 1-32-19.2 281.6 281.6 0 1 1 152.32-249.6 266.88 266.88 0 0 1 0 28.16 38.4 38.4 0 0 1 17.28-4.48h32a39.68 39.68 0 0 1 14.08 0v-26.24a346.24 346.24 0 0 0-346.24-344.96z" fill="#6A81AE" /></svg>