<?xml version="1.0" standalone="no"?><!DOCTYPE svg PUBLIC "-//W3C//DTD SVG 1.1//EN" "http://www.w3.org/Graphics/SVG/1.1/DTD/svg11.dtd"><svg class="icon" width="200px" height="200.00px" viewBox="0 0 1024 1024" version="1.1" xmlns="http://www.w3.org/2000/svg"><path d="M832 200.96a32 32 0 0 0-32 32V556.8l-131.84-23.68-55.04 55.04 213.76 38.4a32.64 32.64 0 0 0 26.24-7.04 32 32 0 0 0 11.52-24.32V232.96a32 32 0 0 0-32.64-32z" fill="#7EDA2C" /><path d="M798.72 232.96a32 32 0 0 1 9.6-22.4l-636.16 635.52a32 32 0 1 0 45.44 45.44l581.12-581.12z" fill="#6A81AE" /><path d="M227.2 791.68V519.04L384 546.56l55.04-55.04L200.96 448a33.28 33.28 0 0 0-26.24 7.04 32 32 0 0 0-11.52 24.32v388.48a32 32 0 0 1 9.6-22.4z" fill="#7EDA2C" /></svg>