<?xml version="1.0" standalone="no"?><!DOCTYPE svg PUBLIC "-//W3C//DTD SVG 1.1//EN" "http://www.w3.org/Graphics/SVG/1.1/DTD/svg11.dtd"><svg class="icon" width="200px" height="200.00px" viewBox="0 0 1024 1024" version="1.1" xmlns="http://www.w3.org/2000/svg"><path d="M273.92 531.84a32 32 0 0 1-21.12-55.68 88.32 88.32 0 1 0-117.76-131.84 32 32 0 0 1-42.88-48 152.32 152.32 0 0 1 203.52 227.84 32 32 0 0 1-21.76 7.68z" fill="#DDCC3A" /><path d="M926.72 799.36l-205.44-506.24a118.4 118.4 0 0 0-6.4-31.36 119.04 119.04 0 0 0-16-29.44l-3.2-4.48a116.48 116.48 0 0 0-23.68-23.04 118.4 118.4 0 0 0-17.92-12.8L640 187.52a116.48 116.48 0 0 0-35.84-5.76h-5.12a117.76 117.76 0 0 0-35.84 6.4l-16.64 7.68-282.24 77.44A149.12 149.12 0 0 1 345.6 409.6l157.44 5.76 68.48 401.92a32 32 0 0 0 31.36 26.88H896a32 32 0 0 0 29.44-44.16zM332.8 344.96L320 323.84l165.76-46.08a117.12 117.12 0 0 0 4.48 64 113.92 113.92 0 0 0 5.76 10.88zM551.68 320a55.04 55.04 0 0 1 33.28-69.76h23.04a53.12 53.12 0 0 1 14.72 3.2l7.68 2.56 8.96 6.4 5.76 5.12a55.04 55.04 0 0 1 8.96 14.72v3.84a53.76 53.76 0 0 1-33.92 64A55.04 55.04 0 0 1 551.68 320z m78.72 461.44l-64-366.08A117.12 117.12 0 0 0 688.64 384l161.28 397.44z" fill="#6A81AE" /></svg>