<?xml version="1.0" standalone="no"?><!DOCTYPE svg PUBLIC "-//W3C//DTD SVG 1.1//EN" "http://www.w3.org/Graphics/SVG/1.1/DTD/svg11.dtd"><svg class="icon" width="200px" height="200.00px" viewBox="0 0 1024 1024" version="1.1" xmlns="http://www.w3.org/2000/svg"><path d="M532.48 44.16L128 277.76v467.84l405.12 233.6 405.12-233.6V277.76z m341.12 625.92l-204.8-118.4a167.04 167.04 0 0 1-40.32 41.6v8.96l215.04 124.16-279.04 160.64v-156.16a89.6 89.6 0 0 1-64 0v156.16l-279.04-160.64 215.04-124.16v-8.96a167.04 167.04 0 0 1-40.32-41.6L192 670.08v-320L364.16 448a167.04 167.04 0 0 1 15.36-64L225.28 295.68l275.2-158.72v153.6a160 160 0 0 1 64 0V136.32l275.2 158.72L684.8 384a167.04 167.04 0 0 1 15.36 64l173.44-99.84z" fill="#6A81AE" /><path d="M532.48 350.72a104.32 104.32 0 0 0-32 203.52V640a32 32 0 1 0 64 0V554.24a104.32 104.32 0 0 0-32-203.52z m0 144.64a40.32 40.32 0 1 1 40.32-40.32 40.32 40.32 0 0 1-40.32 40.96z" fill="#DDCC3A" /></svg>