<?xml version="1.0" standalone="no"?><!DOCTYPE svg PUBLIC "-//W3C//DTD SVG 1.1//EN" "http://www.w3.org/Graphics/SVG/1.1/DTD/svg11.dtd"><svg class="icon" width="200px" height="200.00px" viewBox="0 0 1024 1024" version="1.1" xmlns="http://www.w3.org/2000/svg"><path d="M326.4 609.28a128 128 0 0 0-97.28-128V184.32a32 32 0 0 0-64 0v300.8a128 128 0 0 0 0 249.6v105.6a32 32 0 0 0 64 0v-106.24A128 128 0 0 0 326.4 609.28z m-128 64a64 64 0 1 1 64-64 64 64 0 0 1-65.28 65.28zM956.16 609.28a128 128 0 0 0-97.28-128V184.32a32 32 0 0 0-64 0v300.8a128 128 0 0 0 0 249.6v105.6a32 32 0 0 0 64 0v-106.24a128 128 0 0 0 97.28-124.8z m-128 64a64 64 0 1 1 64-64 64 64 0 0 1-65.28 65.28z" fill="#6A81AE" /><path d="M640 414.72a128 128 0 0 0-97.28-128v-102.4a32 32 0 0 0-64 0v105.6a128 128 0 0 0 0 249.6v300.8a32 32 0 1 0 64 0v-300.8A128 128 0 0 0 640 414.72z m-128 64a64 64 0 1 1 64-64A64 64 0 0 1 512 480z" fill="#FFEBC7" /></svg>