<?xml version="1.0" standalone="no"?><!DOCTYPE svg PUBLIC "-//W3C//DTD SVG 1.1//EN" "http://www.w3.org/Graphics/SVG/1.1/DTD/svg11.dtd"><svg class="icon" width="200px" height="200.00px" viewBox="0 0 1024 1024" version="1.1" xmlns="http://www.w3.org/2000/svg"><path d="M590.72 400h-320a32 32 0 0 1 0-64h320a32 32 0 0 1 0 64zM468.48 544h-192a32 32 0 0 1 0-64h192a32 32 0 1 1 0 64z" fill="#7EDA2C" /><path d="M497.92 670.08H183.68V218.24h624.64v177.28a250.88 250.88 0 0 1 64 26.24V199.04a44.8 44.8 0 0 0-44.8-44.8H164.48a44.8 44.8 0 0 0-44.8 44.8v490.24a44.8 44.8 0 0 0 44.8 44.8h351.36a248.32 248.32 0 0 1-17.92-64z" fill="#6A81AE" /><path d="M960 805.12l-64-64a185.6 185.6 0 0 0-282.88-238.08 185.6 185.6 0 0 0 238.08 282.88l64 64a32 32 0 0 0 45.44-45.44z m-302.08-84.48a121.6 121.6 0 1 1 172.16 0 122.24 122.24 0 0 1-172.16 0z" fill="#6A81AE" /></svg>